<?xml version="1.0" encoding="UTF-8"?>
<svg version="1.1" xmlns="http://www.w3.org/2000/svg" width="701" height="685">
<path d="M0 0 C231.33 0 462.66 0 701 0 C701 226.05 701 452.1 701 685 C469.67 685 238.34 685 0 685 C0 458.95 0 232.9 0 0 Z " fill="#FEFEFE" transform="translate(0,0)"/>
<path d="M0 0 C2.59471607 0.0237441 5.18840431 0.02050304 7.78320312 0.01391602 C23.28730421 0.03788219 38.39733886 1.26449294 53.46289062 5.08618164 C54.52113037 5.34931152 55.57937012 5.61244141 56.66967773 5.88354492 C71.21972431 9.58022771 84.66984205 14.17336669 97.92138672 21.25219727 C100.06622284 22.39104831 102.22546986 23.49827651 104.38867188 24.60180664 C112.32652314 28.67877453 119.85433922 32.90289394 126.96289062 38.33618164 C127.99929688 39.11993164 129.03570312 39.90368164 130.10351562 40.71118164 C132.8766587 42.81951626 135.62984156 44.95218122 138.37451172 47.09741211 C139.91579883 48.29945496 141.46462785 49.49180786 143.01367188 50.68383789 C144.38072266 51.74924805 144.38072266 51.74924805 145.77539062 52.83618164 C146.58621094 53.46524414 147.39703125 54.09430664 148.23242188 54.74243164 C148.80347656 55.26836914 149.37453125 55.79430664 149.96289062 56.33618164 C149.96289062 56.99618164 149.96289062 57.65618164 149.96289062 58.33618164 C150.55223389 58.5964917 151.14157715 58.85680176 151.7487793 59.125 C154.10878586 60.41599047 155.55753621 61.75501008 157.38867188 63.71508789 C158.01684814 64.38419189 158.64502441 65.0532959 159.29223633 65.74267578 C159.94667725 66.45415771 160.60111816 67.16563965 161.27539062 67.89868164 C162.2889563 68.99394165 162.2889563 68.99394165 163.32299805 70.11132812 C191.96289062 101.29143655 191.96289062 101.29143655 191.96289062 113.33618164 C192.62289063 113.33618164 193.28289062 113.33618164 193.96289062 113.33618164 C214.42622356 157.62555954 214.42622356 157.62555954 214.96289062 179.33618164 C215.99349609 179.49086914 215.99349609 179.49086914 217.04492188 179.64868164 C227.68032939 182.15448047 236.48724389 188.63862332 243.96289062 196.33618164 C244.52363281 196.87629883 245.084375 197.41641602 245.66210938 197.97290039 C257.79020409 210.61031142 260.10171559 227.83118769 260.16601562 244.50805664 C260.1717157 245.6668634 260.17741577 246.82567017 260.18328857 248.01959229 C260.19270162 250.46365455 260.19925779 252.9077293 260.203125 255.35180664 C260.21282312 259.06036876 260.24387978 262.76837445 260.27539062 266.47680664 C260.28192271 268.86222005 260.28717237 271.24763738 260.29101562 273.63305664 C260.30336243 274.72720886 260.31570923 275.82136108 260.32843018 276.94866943 C260.28272397 293.00688691 254.95149554 307.75313389 244.96289062 320.33618164 C244.30289062 320.33618164 243.64289063 320.33618164 242.96289062 320.33618164 C242.65544922 321.18696289 242.65544922 321.18696289 242.34179688 322.05493164 C240.46447401 325.16075758 237.86023624 326.858335 234.90039062 328.83618164 C234.31475342 329.23200439 233.72911621 329.62782715 233.12573242 330.03564453 C223.87132036 336.16759689 214.23795713 339.92960619 202.96289062 339.33618164 C202.70636719 340.20887695 202.44984375 341.08157227 202.18554688 341.98071289 C194.28288347 363.66885303 171.57238586 382.8332361 151.34179688 392.60180664 C145.20499192 395.29144654 138.89039178 397.44738091 132.52539062 399.52368164 C131.77523682 399.77375977 131.02508301 400.02383789 130.25219727 400.28149414 C119.05676838 403.82155071 107.83623555 404.67766072 96.15039062 404.58618164 C94.93005127 404.58158936 93.70971191 404.57699707 92.45239258 404.57226562 C82.18386779 404.46931448 72.35685454 403.57437783 62.27148438 401.62133789 C59.08925259 401.06797594 59.08925259 401.06797594 56.92382812 402.29711914 C56.40046875 402.76375977 55.87710937 403.23040039 55.33789062 403.71118164 C49.5177511 408.79315713 41.26441413 407.80581847 33.96289062 407.33618164 C26.54934415 405.98938736 20.88587437 401.14908371 16.38476562 395.27758789 C11.62780112 388.04645506 11.32153401 380.86180146 11.96289062 372.33618164 C13.01921967 368.09028763 14.88206732 364.17770159 16.96289062 360.33618164 C17.62289063 360.33618164 18.28289062 360.33618164 18.96289062 360.33618164 C19.14851563 359.77930664 19.33414062 359.22243164 19.52539062 358.64868164 C22.49062401 353.87852359 27.70888823 351.0342143 32.96289062 349.33618164 C44.3613074 348.28758177 52.28807979 349.71206716 61.20507812 356.79321289 C64.99413701 360.11916458 67.47747314 363.5085748 68.96289062 368.33618164 C68.96289062 369.65618164 68.96289062 370.97618164 68.96289062 372.33618164 C70.05601562 372.31555664 71.14914062 372.29493164 72.27539062 372.27368164 C75.96289063 372.33618164 75.96289063 372.33618164 78.96289062 373.33618164 C99.16323005 374.66768869 120.86679172 374.47112627 138.96289062 364.33618164 C139.94386719 363.8218457 140.92484375 363.30750977 141.93554688 362.77758789 C152.88279552 356.78497264 165.59509787 347.51560375 169.96289062 335.33618164 C169.26164062 334.97266602 168.56039063 334.60915039 167.83789062 334.23461914 C161.80169363 331.03609084 156.27790177 327.63083248 150.96289062 323.33618164 C150.73214844 324.13282227 150.50140625 324.92946289 150.26367188 325.75024414 C146.26353321 338.74674211 146.26353321 338.74674211 140.10742188 342.45336914 C136.11656449 344.09623575 132.1790096 344.08744094 127.96289062 343.33618164 C123.75901941 340.96910242 120.71554892 337.85837074 118.96289062 333.33618164 C118.69726562 330.71508789 118.69726562 330.71508789 118.71289062 327.89868164 C118.70773437 326.9718457 118.70257813 326.04500977 118.69726562 325.09008789 C118.98383034 322.11908612 119.84543669 320.0983389 120.96289062 317.33618164 C121.72631399 314.21004388 122.34074375 311.05559097 122.96289062 307.89868164 C124.01870576 302.56599036 125.20120078 297.4885716 126.96289062 292.33618164 C128.75310007 283.79621954 129.5117677 274.99413386 130.52539062 266.33618164 C130.65228271 265.25691406 130.7791748 264.17764648 130.90991211 263.06567383 C131.28066013 259.82426281 131.62922961 256.58161412 131.96289062 253.33618164 C132.0629541 252.36664551 132.16301758 251.39710938 132.26611328 250.39819336 C133.13657028 240.73847321 133.1835754 231.07232834 133.203125 221.38061523 C133.21284913 218.47358777 133.24398099 215.56726361 133.27539062 212.66040039 C133.35623387 198.56039152 131.84372097 185.69113398 127.21289062 172.27368164 C126.95757568 171.52401123 126.70226074 170.77434082 126.43920898 170.00195312 C115.59394572 139.16288528 92.84598044 113.39306588 63.58789062 98.89868164 C61.05572699 97.68943561 58.5106202 96.5126897 55.96289062 95.33618164 C55.02316406 94.85536133 54.0834375 94.37454102 53.11523438 93.87915039 C27.0135126 80.84797406 -7.84696787 81.20033281 -35.13989258 90.15185547 C-51.81254937 95.99057028 -66.56749577 103.82470569 -80.03710938 115.33618164 C-80.54000488 115.75996094 -81.04290039 116.18374023 -81.56103516 116.62036133 C-89.98035941 123.77691501 -96.68040391 131.49002489 -102.875 140.63305664 C-103.8734668 142.09635588 -104.91249577 143.53183136 -105.95898438 144.96118164 C-120.50513692 165.7795284 -125.48491433 191.99526247 -125.47460938 216.89868164 C-125.47534454 217.68231079 -125.47607971 218.46593994 -125.47683716 219.27331543 C-125.37593061 261.12286974 -119.76918744 309.05368197 -102.03710938 347.33618164 C-101.28880859 349.10735352 -101.28880859 349.10735352 -100.52539062 350.91430664 C-97.93118091 356.8789463 -94.95185838 362.64903827 -91.99658203 368.44116211 C-91.20565008 370.00330303 -90.43670601 371.5765565 -89.67382812 373.15258789 C-81.70968628 388.90827407 -69.59469436 404.06197939 -56.03710938 415.33618164 C-55.17859375 416.07094727 -54.32007813 416.80571289 -53.43554688 417.56274414 C-46.19125763 423.66427226 -38.91372926 428.91889136 -30.03710938 432.33618164 C-29.29332031 432.65458008 -28.54953125 432.97297852 -27.78320312 433.30102539 C-17.21435075 437.75389213 -7.01080975 439.9230845 4.46289062 439.89868164 C5.58348877 439.89771484 6.70408691 439.89674805 7.85864258 439.89575195 C19.58118371 439.65255607 31.53176051 437.33633454 41.66210938 431.16040039 C46.49667372 428.4885169 50.58000963 428.65184638 55.96289062 429.33618164 C60.69732222 431.2501008 63.68973456 434.7898695 65.96289062 439.33618164 C66.36921827 444.51685911 66.03099682 449.03286387 62.96289062 453.33618164 C46.81753316 468.71271256 17.8856502 470.89866051 -3.08007812 470.60571289 C-35.05305549 469.56473223 -65.1979696 451.2173699 -86.72070312 428.50415039 C-87.63986739 427.51176678 -88.55782761 426.51826667 -89.47460938 425.52368164 C-89.92642578 425.04092773 -90.37824219 424.55817383 -90.84375 424.06079102 C-102.23422725 411.70091145 -111.18011066 396.8383376 -119.53710938 382.33618164 C-120.02904785 381.48902588 -120.52098633 380.64187012 -121.02783203 379.76904297 C-124.22988079 374.12431369 -126.74401904 368.40108411 -129.03710938 362.33618164 C-129.43414062 361.37711914 -129.83117187 360.41805664 -130.24023438 359.42993164 C-134.98159807 347.68267232 -138.39572207 335.45740043 -142.03710938 323.33618164 C-144.40479908 323.10914699 -144.40479908 323.10914699 -146.72460938 325.83618164 C-150.34375112 329.029542 -154.24756135 331.30835079 -158.47460938 333.58618164 C-159.09489014 333.92713867 -159.7151709 334.2680957 -160.35424805 334.61938477 C-169.66808311 339.52178794 -178.40929859 339.70096726 -188.78710938 339.71118164 C-190.08132812 339.73567383 -191.37554687 339.76016602 -192.70898438 339.78540039 C-210.67042508 339.83971926 -223.44489156 332.70273247 -236.03710938 320.33618164 C-248.53372636 307.54894566 -251.52070363 291.38675969 -251.43554688 274.14477539 C-251.43841705 272.83767105 -251.44128723 271.53056671 -251.44424438 270.18385315 C-251.44862417 267.4400039 -251.44237848 264.69645103 -251.42822266 261.95263672 C-251.41111586 258.47099732 -251.42100863 254.99005137 -251.43894005 251.50843716 C-251.45250763 248.1371639 -251.44295508 244.7660682 -251.43554688 241.39477539 C-251.44465591 239.54740028 -251.44465591 239.54740028 -251.45394897 237.66270447 C-251.30833326 219.51711041 -245.23483659 206.43130885 -233.08398438 193.21118164 C-227.00015558 187.26667717 -215.83698352 179.33618164 -207.03710938 179.33618164 C-206.92625 178.07676758 -206.81539062 176.81735352 -206.70117188 175.51977539 C-204.24984777 153.65003543 -195.32315214 132.58118819 -185.03710938 113.33618164 C-184.67327148 112.65249512 -184.30943359 111.96880859 -183.93457031 111.2644043 C-179.2207515 102.47360319 -174.20589948 94.20192265 -168.03710938 86.33618164 C-167.59979492 85.76496582 -167.16248047 85.19375 -166.71191406 84.60522461 C-154.13578029 68.21853087 -139.76233335 53.49421424 -123.03710938 41.33618164 C-122.19277344 40.7084082 -121.3484375 40.08063477 -120.47851562 39.43383789 C-100.64528569 25.0718438 -77.76210174 13.5550054 -54.03710938 7.33618164 C-52.89757812 7.02036133 -51.75804687 6.70454102 -50.58398438 6.37915039 C-33.8951671 1.8694874 -17.27593198 -0.16812368 0 0 Z " fill="#616362" transform="translate(346.037109375,15.663818359375)"/>
<path d="M0 0 C3.14147812 1.89455296 6.16284726 3.92544497 9.1640625 6.03125 C23.38847379 15.70221774 38.06100411 22.67972336 54.5390625 27.53125 C55.786875 27.92054688 57.0346875 28.30984375 58.3203125 28.7109375 C71.03871032 32.56585011 83.33147559 33.90170159 96.6015625 33.84375 C97.27748444 33.84159485 97.95340637 33.8394397 98.64981079 33.83721924 C132.45091281 33.66513765 167.52171319 23.28124066 194.33984375 2.0625 C197.98207517 -0.47347641 197.98207517 -0.47347641 200.5390625 -0.46875 C202.86107088 0.97053612 204.90340374 2.4154396 207.0390625 4.09375 C213.2369564 8.74338379 219.51202197 12.24625138 226.5390625 15.53125 C227.81136719 16.21380859 227.81136719 16.21380859 229.109375 16.91015625 C239.75311544 22.60440223 251.20822595 26.44692541 262.5390625 30.53125 C263.58900391 30.91627686 263.58900391 30.91627686 264.66015625 31.30908203 C276.66637211 35.69522379 289.10736309 38.6409047 301.48730469 41.76171875 C303.96716289 42.3870398 306.44512138 43.0187885 308.921875 43.65625 C318.38120624 46.0662707 327.89081037 48.25079513 337.40649414 50.42602539 C339.51363589 50.90804503 341.62019229 51.39263274 343.72607422 51.88012695 C345.43458692 52.27559678 347.1442659 52.66612937 348.85595703 53.04760742 C364.11507839 56.58683007 375.91589724 65.76452597 384.78125 78.48828125 C393.10588893 92.8991562 392.5390625 105.65887436 392.5390625 122.53125 C198.4990625 122.53125 4.4590625 122.53125 -195.4609375 122.53125 C-195.4609375 101.00931814 -195.08866841 86.70146802 -181.4609375 70.53125 C-180.98398438 69.94730469 -180.50703125 69.36335937 -180.015625 68.76171875 C-169.41996786 56.96806017 -154.06937954 52.91857492 -139.1484375 49.90625 C-127.47526653 47.47875564 -115.9000659 44.7437919 -104.3359375 41.84375 C-103.5663974 41.65165955 -102.7968573 41.45956909 -102.0039978 41.26165771 C-86.56088105 37.40818353 -86.56088105 37.40818353 -71.49804688 32.30371094 C-68.44140879 31.14465019 -65.34811787 30.09659314 -62.25708008 29.03344727 C-53.86381483 26.14179878 -45.56746371 23.16413627 -37.4609375 19.53125 C-36.81560059 19.24668945 -36.17026367 18.96212891 -35.50537109 18.66894531 C-24.64482203 13.85588913 -14.84550477 8.51996751 -5.44140625 1.171875 C-2.4609375 -0.46875 -2.4609375 -0.46875 0 0 Z " fill="#FEFEFE" transform="translate(251.4609375,518.46875)"/>
<path d="M0 0 C3.38545922 2.19597355 6.55664919 4.64598139 9.765625 7.08984375 C39.10383363 29.39306691 71.74861636 41.64962826 108.98046875 38.96875 C116.15377161 37.97932892 123.06704164 36.08278477 129.98046875 33.96875 C130.73408691 33.74413086 131.48770508 33.51951172 132.26416016 33.28808594 C149.91855942 27.91551792 166.11213944 18.93863917 180.35546875 7.21484375 C190.85504678 -1.38011747 190.85504678 -1.38011747 197.00390625 -1.32421875 C204.42771847 -0.22385133 208.05408441 3.68044446 213.0625 9.0078125 C214.83215901 11.03072713 214.83215901 11.03072713 216.98046875 11.96875 C216.98046875 12.62875 216.98046875 13.28875 216.98046875 13.96875 C218.07488281 14.38447266 218.07488281 14.38447266 219.19140625 14.80859375 C221.80361146 15.89518331 224.15190327 17.12864172 226.60546875 18.53125 C241.21523942 26.54999963 256.14936245 32.81388641 271.98046875 37.96875 C272.87701172 38.26523437 273.77355469 38.56171875 274.69726562 38.8671875 C297.90861762 46.5333221 321.43754934 52.09358472 345.35546875 57.09765625 C353.2081345 58.75398484 360.68799471 60.52339081 367.98046875 63.96875 C368.90730469 64.36449219 369.83414063 64.76023437 370.7890625 65.16796875 C390.88913951 74.29011033 404.94722261 92.19048495 413.62109375 112.0234375 C414.09457625 113.33135017 414.54527805 114.64760266 414.98046875 115.96875 C415.25262207 116.78698242 415.52477539 117.60521484 415.80517578 118.44824219 C418.73153954 128.87352149 418.43450038 139.43487198 418.37158203 150.18261719 C418.35536777 153.4893432 418.37156485 156.79487149 418.390625 160.1015625 C418.38864479 162.21354435 418.38480574 164.32552546 418.37890625 166.4375 C418.38497894 167.42085327 418.39105164 168.40420654 418.39730835 169.4173584 C418.30554144 178.33213744 418.30554144 178.33213744 414.98046875 181.96875 C409.06280249 186.17430834 404.48558752 186.53852654 397.33821583 186.46652794 C396.272727 186.47174251 395.20723818 186.47695708 394.10946181 186.48232967 C390.52682148 186.49495696 386.94487868 186.47898723 383.36225891 186.46322632 C380.77281582 186.46640191 378.18337438 186.47132851 375.59393758 186.47785914 C369.95772928 186.48922754 364.32168211 186.48572806 358.68548012 186.4724884 C350.30448224 186.45285535 341.92360236 186.45611725 333.54259079 186.463989 C319.4432943 186.47654209 305.34406469 186.47019296 291.24477577 186.45280075 C277.28116549 186.43557946 263.31758525 186.42576026 249.35396385 186.42613602 C248.05169722 186.42615895 248.05169722 186.42615895 246.72312217 186.42618235 C243.19907038 186.42626417 239.67501859 186.42639539 236.1509668 186.42659398 C203.0860249 186.42840654 170.02112882 186.4085097 136.95620282 186.37773465 C107.56446383 186.35047928 78.17275738 186.33801237 48.78100586 186.33935547 C46.89338409 186.33943629 45.00576232 186.33951701 43.11814056 186.33959763 C42.18494607 186.33963833 41.25175157 186.33967903 40.29027846 186.33972096 C35.59293717 186.33992255 30.89559588 186.34010371 26.19825459 186.34026146 C24.80825517 186.3403116 24.80825517 186.3403116 23.39017496 186.34036275 C-1.15462143 186.34109265 -25.69941374 186.3320207 -50.24420673 186.31960833 C-51.1169934 186.31916779 -51.98978008 186.31872724 -52.88901483 186.31827335 C-56.39885481 186.31649685 -59.90869478 186.31472007 -63.41853473 186.31289144 C-75.64170727 186.30656627 -87.86487659 186.30355224 -100.08805065 186.30266846 C-115.8355723 186.30147563 -131.58306707 186.29351362 -147.33057722 186.27380554 C-155.66369856 186.26355727 -163.99678043 186.25876288 -172.32990777 186.26179791 C-178.53994085 186.26343403 -184.74991715 186.2546629 -190.959936 186.24169691 C-193.48131296 186.23805478 -196.00269747 186.23782458 -198.52407476 186.24123149 C-201.93440572 186.24533151 -205.34449217 186.23728691 -208.75480175 186.22601891 C-209.74821735 186.23012954 -210.74163296 186.23424018 -211.76515207 186.23847538 C-213.12407434 186.23019615 -213.12407434 186.23019615 -214.51044959 186.22174966 C-215.68076265 186.22087517 -215.68076265 186.22087517 -216.87471841 186.219983 C-219.98872878 185.85522289 -222.1885841 184.73424334 -224.48303223 182.62052917 C-228.58963504 177.34779761 -228.72289349 172.73330199 -228.61328125 166.20703125 C-228.61332153 165.17998581 -228.61336182 164.15294037 -228.61340332 163.09477234 C-228.60805831 160.92713284 -228.59051945 158.75949316 -228.56152344 156.59204102 C-228.51988055 153.30879025 -228.52044415 150.02760967 -228.52734375 146.74414062 C-228.46706991 126.59415482 -228.46706991 126.59415482 -225.01953125 116.96875 C-224.79007813 116.2677417 -224.560625 115.5667334 -224.32421875 114.84448242 C-219.78728809 101.57562824 -211.40584958 84.93609873 -198.6875 77.62890625 C-198.13707031 77.41105469 -197.58664063 77.19320312 -197.01953125 76.96875 C-197.01953125 76.30875 -197.01953125 75.64875 -197.01953125 74.96875 C-192.86911364 72.02182339 -188.42889685 69.50824867 -184.01953125 66.96875 C-183.16230469 66.47503906 -182.30507812 65.98132813 -181.421875 65.47265625 C-170.07233927 59.39051774 -157.06944733 57.24122585 -144.61328125 54.44921875 C-114.96332317 47.9771796 -114.96332317 47.9771796 -86.01953125 38.96875 C-82.0783298 37.62188613 -78.12800485 36.31109491 -74.1484375 35.08203125 C-54.92980508 29.0853499 -33.43944096 19.97518597 -19.39453125 5.21875 C-14.32300544 0.01868321 -7.1152948 -3.63334203 0 0 Z M-12.64453125 38.46875 C-19.78524709 43.35532682 -27.1686827 47.29979134 -34.98486328 50.98461914 C-36.43005462 51.68363117 -37.86227634 52.40974239 -39.28466797 53.15405273 C-45.83835118 56.56762113 -52.51993128 59.0604608 -59.51953125 61.40625 C-60.56367188 61.76267578 -61.6078125 62.11910156 -62.68359375 62.48632812 C-64.90139705 63.24118286 -67.1214056 63.989581 -69.34326172 64.73242188 C-71.9369326 65.60467246 -74.52274908 66.4906038 -77.10595703 67.39257812 C-87.96296327 71.14839072 -98.92323705 74.16264152 -110.07763672 76.90136719 C-112.88738952 77.59199459 -115.69378705 78.29514274 -118.5 79 C-128.45646198 81.48052653 -138.42391152 83.75161395 -148.50680542 85.66091919 C-165.28246654 88.86389102 -179.42842643 96.56331774 -189.83203125 110.375 C-199.2790989 124.92348417 -199.01953125 139.86203337 -199.01953125 156.96875 C-4.97953125 156.96875 189.06046875 156.96875 388.98046875 156.96875 C389.66344718 139.66263049 389.66344718 139.66263049 385.98046875 123.96875 C385.58021484 122.72158203 385.58021484 122.72158203 385.171875 121.44921875 C380.66879181 108.42029806 369.68127286 97.65109497 357.66796875 91.28125 C346.96015835 86.2786434 334.82778956 84.79235511 323.31103516 82.61230469 C304.88757925 79.05239927 286.81673831 73.74313537 268.98046875 67.96875 C267.61414307 67.52958252 267.61414307 67.52958252 266.22021484 67.08154297 C255.80228809 63.72163775 245.42214483 60.31947969 235.29296875 56.15625 C234.61693604 55.87861816 233.94090332 55.60098633 233.24438477 55.31494141 C229.62608959 53.78582244 226.3283333 52.01052089 222.98046875 49.96875 C220.79782762 48.91694042 218.60987395 47.87611491 216.41796875 46.84375 C210.08233239 43.81410127 204.92664955 40.05306838 199.6015625 35.49609375 C197.11327638 33.65555358 197.11327638 33.65555358 194.515625 34.4765625 C191.59718518 36.19434988 188.78441108 38.00602928 185.98046875 39.90625 C171.90570237 49.14114487 157.18727506 56.67350268 141.00146484 61.37646484 C139.09582151 61.93494403 137.20351339 62.53835976 135.3125 63.14453125 C104.72914232 72.64783448 71.75816282 69.21491207 41.98046875 58.96875 C40.86285156 58.60136719 39.74523437 58.23398437 38.59375 57.85546875 C24.15183461 52.77028728 10.62117383 44.58165823 -1.68359375 35.55078125 C-6.2515999 32.45706471 -8.69815946 35.70544042 -12.64453125 38.46875 Z " fill="#606261" transform="translate(255.01953125,484.03125)"/>
<path d="M0 0 C1.59008534 0.45905213 3.19048176 0.88221294 4.79296875 1.29589844 C34.38885387 9.18164414 60.32883119 29.72514739 81.91796875 50.55371094 C82.71976562 51.3078125 83.5215625 52.06191406 84.34765625 52.83886719 C85.91796875 54.55371094 85.91796875 54.55371094 85.91796875 56.55371094 C86.57796875 56.55371094 87.23796875 56.55371094 87.91796875 56.55371094 C89.1796875 57.94116211 89.1796875 57.94116211 90.60546875 59.90917969 C91.1365625 60.64185059 91.66765625 61.37452148 92.21484375 62.12939453 C95.17185009 66.33855064 98.06317833 70.58714189 100.91796875 74.86621094 C101.80355469 76.1762207 101.80355469 76.1762207 102.70703125 77.51269531 C108.87418878 86.74305554 114.06966049 96.13392713 117.91796875 106.55371094 C118.2221875 107.34648437 118.52640625 108.13925781 118.83984375 108.95605469 C121.13165962 115.05190919 123.16493972 121.23319983 125.16796875 127.42871094 C125.43851074 128.24976318 125.70905273 129.07081543 125.98779297 129.91674805 C127.25555856 133.89433198 128.29486 137.32225011 127.91796875 141.55371094 C127.17933594 141.71226562 126.44070313 141.87082031 125.6796875 142.03417969 C118.2813412 143.73570533 111.70862543 146.17175003 104.91796875 149.55371094 C104.76763184 149.00134766 104.61729492 148.44898438 104.46240234 147.87988281 C98.24248779 125.181661 90.91863746 103.75750069 76.91796875 84.55371094 C76.52270996 84.01037109 76.12745117 83.46703125 75.72021484 82.90722656 C63.04518456 65.66643314 46.67966408 48.51614648 26.91796875 39.55371094 C26.91796875 38.89371094 26.91796875 38.23371094 26.91796875 37.55371094 C26.26183594 37.47378906 25.60570312 37.39386719 24.9296875 37.31152344 C21.63758584 36.48316063 19.04118778 35.17652295 16.04321289 33.62036133 C-5.21449115 22.66724685 -28.83079509 18.11769339 -52.58203125 18.17871094 C-53.77723389 18.17952667 -53.77723389 18.17952667 -54.99658203 18.18035889 C-67.46387571 18.2194521 -79.04129774 19.13854962 -91.08203125 22.55371094 C-92.7393867 22.98285648 -94.39694538 23.41121777 -96.0546875 23.83886719 C-120.78631762 30.49044646 -145.49582695 43.67721448 -163.08203125 62.55371094 C-168.08203125 67.55371094 -168.08203125 67.55371094 -169.74609375 69.04199219 C-192.21569852 89.89341554 -203.34014975 120.44464613 -210.08203125 149.55371094 C-212.5541445 148.57013479 -215.02142217 147.5790224 -217.4765625 146.55371094 C-222.63354575 144.42093596 -227.63383717 142.76442073 -233.08203125 141.55371094 C-232.70510732 133.5103707 -231.14573057 126.46166405 -228.51953125 118.86621094 C-228.16310547 117.81965332 -227.80667969 116.7730957 -227.43945312 115.69482422 C-224.35694894 106.88476722 -220.59894974 98.70472615 -216.08203125 90.55371094 C-215.44972629 89.36793636 -214.8182102 88.18174078 -214.1875 86.99511719 C-205.87862127 71.81576033 -195.30725929 58.75998513 -183.08203125 46.55371094 C-182.00115234 45.420625 -182.00115234 45.420625 -180.8984375 44.26464844 C-161.6963347 24.36368228 -135.61197566 8.46236645 -109.08203125 0.55371094 C-108.44749023 0.35970703 -107.81294922 0.16570313 -107.15917969 -0.03417969 C-72.10200996 -10.58799795 -35.05359416 -10.2319462 0 0 Z " fill="#FBFBFB" transform="translate(403.08203125,52.4462890625)"/>
<path d="M0 0 C6.72621558 4.73892461 10.76673616 11.31276447 12.3125 19.375 C12.62107913 23.41138138 12.64032711 27.43747316 12.6484375 31.484375 C12.6584227 33.22826508 12.6584227 33.22826508 12.66860962 35.00738525 C12.67870958 37.46161321 12.68342746 39.91586847 12.68310547 42.37011719 C12.68746931 46.098775 12.72379398 49.8262395 12.76171875 53.5546875 C12.76758951 55.94791265 12.77155717 58.34114338 12.7734375 60.734375 C12.78780853 61.83682556 12.80217957 62.93927612 12.81698608 64.07513428 C12.7615599 73.60245139 10.82118972 82.76440225 4.08203125 89.87890625 C-3.03243278 95.89400497 -11.23940947 98.76241318 -20.5 98.6875 C-21.20560059 98.68331055 -21.91120117 98.67912109 -22.63818359 98.67480469 C-30.85933931 98.49711128 -37.22746417 96.54302866 -43.6875 91.375 C-52.71739653 81.91201491 -53.99911597 73.52484836 -54.09375 60.765625 C-54.10515015 59.56242615 -54.11655029 58.35922729 -54.1282959 57.11956787 C-54.14712626 54.58137492 -54.16023607 52.04313384 -54.16796875 49.50488281 C-54.18737006 45.65081257 -54.24947202 41.79888258 -54.3125 37.9453125 C-54.32556379 35.46876255 -54.33606327 32.99219748 -54.34375 30.515625 C-54.3684436 29.37772522 -54.39313721 28.23982544 -54.4185791 27.06744385 C-54.36825191 17.89083764 -51.8363038 10.15259589 -45.74279785 3.13555908 C-33.28335711 -9.01511264 -14.26273283 -8.50096659 0 0 Z " fill="#FDFDFD" transform="translate(563.6875,227.625)"/>
<path d="M0 0 C6.78372063 4.95609384 12.34730705 10.49032535 14 19 C14.1102925 20.90169818 14.16859588 22.80668666 14.19287109 24.71142578 C14.20893402 25.86007111 14.22499695 27.00871643 14.24154663 28.19216919 C14.28620688 33.44810357 14.32750307 38.70389094 14.35009766 43.95996094 C14.36339752 46.72625078 14.39118122 49.49179603 14.43212891 52.2578125 C14.49132569 56.25793646 14.50880623 60.25727278 14.5234375 64.2578125 C14.54610687 65.48420441 14.56877625 66.71059631 14.59213257 67.97415161 C14.56840597 77.69409404 12.24763217 84.63518577 5.6875 91.875 C-2.91586687 99.82233672 -12.57937702 100.47278033 -23.82421875 100.27734375 C-28.91930006 100.04971287 -32.72756186 98.78448107 -37 96 C-37.70511719 95.5875 -38.41023437 95.175 -39.13671875 94.75 C-45.78474962 90.42447899 -48.54760626 84.35718121 -51 77 C-51.11832743 75.10585067 -51.17946358 73.20791859 -51.20874023 71.31030273 C-51.23767616 69.55719032 -51.23767616 69.55719032 -51.26719666 67.7686615 C-51.32505578 62.40853548 -51.37454446 57.04857197 -51.4050293 51.68823242 C-51.42277823 48.86647557 -51.45749272 46.0457303 -51.50756836 43.22436523 C-51.57981496 39.14811551 -51.60206112 35.072945 -51.62109375 30.99609375 C-51.64892441 29.74469101 -51.67675507 28.49328827 -51.70542908 27.20396423 C-51.68137268 16.87905639 -48.58445163 10.37193094 -41.3125 3.125 C-30.16679755 -5.75377992 -12.33311783 -7.6572575 0 0 Z " fill="#FDFDFD" transform="translate(176,226)"/>
<path d="M0 0 C0.99 0 1.98 0 3 0 C3 1.32 3 2.64 3 4 C3.598125 4.0825 4.19625 4.165 4.8125 4.25 C7.61082841 5.20942688 8.35366647 6.60533304 10 9 C10.66 9.33 11.32 9.66 12 10 C12 10.66 12 11.32 12 12 C13.65 11.67 15.3 11.34 17 11 C16.67 12.32 16.34 13.64 16 15 C12.1723433 13.6586265 9.43369025 11.95037939 6.3125 9.375 C3.50335008 6.76701265 3.50335008 6.76701265 0 6 C0 4.02 0 2.04 0 0 Z " fill="#6B6D6C" transform="translate(496,333)"/>
<path d="M0 0 C-3.57644848 1.2380014 -6.33694766 0.74926071 -10 0 C-9.01 0.99 -8.02 1.98 -7 3 C-9.98879276 3.85394079 -11.71763271 4.07700926 -14.75 3.25 C-17 2 -17 2 -18 -1 C-12.63033947 -4.80350954 -5.61583493 -2.1059381 0 0 Z " fill="#707271" transform="translate(616,545)"/>
<path d="M0 0 C1.125 1.75 1.125 1.75 2 4 C1.19265825 6.96025308 0.0420092 7.96683484 -2.375 9.875 C-3.674375 10.431875 -3.674375 10.431875 -5 11 C-7.1640625 10.0703125 -7.1640625 10.0703125 -9 9 C-8.43410156 8.51789063 -7.86820313 8.03578125 -7.28515625 7.5390625 C-6.55167969 6.90742188 -5.81820312 6.27578125 -5.0625 5.625 C-4.33160156 4.99851562 -3.60070312 4.37203125 -2.84765625 3.7265625 C-0.91619094 2.12252286 -0.91619094 2.12252286 0 0 Z " fill="#6A6A6A" transform="translate(185,312)"/>
<path d="M0 0 C0.99 0.33 1.98 0.66 3 1 C3.625 3.375 3.625 3.375 4 6 C3.34 6.66 2.68 7.32 2 8 C0.68 8 -0.64 8 -2 8 C-2 7.34 -2 6.68 -2 6 C-2.66 6 -3.32 6 -4 6 C-4 5.34 -4 4.68 -4 4 C-3.34 4 -2.68 4 -2 4 C-1.34 2.68 -0.68 1.36 0 0 Z " fill="#686868" transform="translate(367,372)"/>
<path d="M0 0 C2.01728902 3.02593352 2.8568338 5.5705014 4 9 C4.97004121 11.01470098 5.96244882 13.01922047 7 15 C6.01 15 5.02 15 4 15 C-1.5125 9.225 -1.5125 9.225 -2 5 C-1.34 4.67 -0.68 4.34 0 4 C0 2.68 0 1.36 0 0 Z " fill="#666867" transform="translate(510,301)"/>
<path d="M0 0 C3.96 0 7.92 0 12 0 C12 1.65 12 3.3 12 5 C8.13209997 5 6.98680587 4.72629646 3.75 3 C3.04359375 2.62875 2.3371875 2.2575 1.609375 1.875 C1.07828125 1.58625 0.5471875 1.2975 0 1 C0 0.67 0 0.34 0 0 Z " fill="#6A6A6A" transform="translate(407,112)"/>
<path d="M0 0 C2 3 2 3 2 6 C2.66 6 3.32 6 4 6 C4 5.01 4 4.02 4 3 C4.99 3 5.98 3 7 3 C6.67 4.65 6.34 6.3 6 8 C5.01 8.33 4.02 8.66 3 9 C1.17578125 7.78515625 1.17578125 7.78515625 -0.6875 6.0625 C-1.31011719 5.49660156 -1.93273437 4.93070313 -2.57421875 4.34765625 C-3.04472656 3.90292969 -3.51523437 3.45820313 -4 3 C-2.68 2.01 -1.36 1.02 0 0 Z " fill="#686968" transform="translate(436,126)"/>
<path d="M0 0 C3.82946843 1.45255699 5.12050295 3.42895561 7 7 C5.35 7.66 3.7 8.32 2 9 C1.34 7.35 0.68 5.7 0 4 C-0.66 4.66 -1.32 5.32 -2 6 C-1.125 1.125 -1.125 1.125 0 0 Z " fill="#696A69" transform="translate(511,90)"/>
<path d="M0 0 C1.32 0.66 2.64 1.32 4 2 C3.95875 2.94875 3.9175 3.8975 3.875 4.875 C3.65026182 8.10244856 3.65026182 8.10244856 6 10 C5.01 10.99 4.02 11.98 3 13 C2.30093058 11.40084119 1.61610532 9.79544955 0.9375 8.1875 C0.55464844 7.29417969 0.17179687 6.40085938 -0.22265625 5.48046875 C-1 3 -1 3 0 0 Z " fill="#676968" transform="translate(470,174)"/>
<path d="M0 0 C0.33 0.66 0.66 1.32 1 2 C0.34 2.66 -0.32 3.32 -1 4 C-1.99 5.485 -1.99 5.485 -3 7 C-5.3828125 7.73046875 -5.3828125 7.73046875 -8.125 8.1875 C-9.03507813 8.34605469 -9.94515625 8.50460937 -10.8828125 8.66796875 C-11.58148438 8.77753906 -12.28015625 8.88710938 -13 9 C-8.91266859 5.55131413 -4.56194093 2.76206846 0 0 Z " fill="#6B6B6B" transform="translate(229,496)"/>
<path d="M0 0 C2.1640625 0.0234375 2.1640625 0.0234375 4.625 0.375 C5.85089844 0.54128906 5.85089844 0.54128906 7.1015625 0.7109375 C7.72804688 0.80632812 8.35453125 0.90171875 9 1 C9.33 2.32 9.66 3.64 10 5 C7.5332355 5.88336837 6.36140628 6.1312406 3.859375 5.22265625 C3.16328125 4.83980469 2.4671875 4.45695312 1.75 4.0625 C1.04359375 3.68222656 0.3371875 3.30195313 -0.390625 2.91015625 C-0.92171875 2.60980469 -1.4528125 2.30945313 -2 2 C-1.34 1.34 -0.68 0.68 0 0 Z " fill="#6A6C6B" transform="translate(297,470)"/>
<path d="M0 0 C0.66 0.33 1.32 0.66 2 1 C1.01 2.485 1.01 2.485 0 4 C-0.68177416 5.32567199 -1.35191436 6.65753688 -2 8 C-2.66 8 -3.32 8 -4 8 C-4.33 8.99 -4.66 9.98 -5 11 C-5.99 10.01 -6.98 9.02 -8 8 C-5.36 5.36 -2.72 2.72 0 0 Z " fill="#6C6C6C" transform="translate(249,105)"/>
<path d="M0 0 C-0.99 1.485 -0.99 1.485 -2 3 C-1.67 3.66 -1.34 4.32 -1 5 C-5.21015871 5.95685425 -7.25712373 6.13181214 -11 4 C-9.73760288 3.13341385 -8.46472499 2.28207941 -7.1875 1.4375 C-6.47980469 0.96183594 -5.77210937 0.48617187 -5.04296875 -0.00390625 C-3 -1 -3 -1 0 0 Z " fill="#6B6B6B" transform="translate(77,550)"/>
<path d="M0 0 C-1.22053859 3.66161578 -2.36782304 4.16270474 -5.5625 6.1875 C-6.38878906 6.71730469 -7.21507812 7.24710938 -8.06640625 7.79296875 C-8.70449219 8.19128906 -9.34257812 8.58960938 -10 9 C-10 6 -10 6 -7.6875 3.375 C-5.0432953 1.03826096 -3.54852194 0 0 0 Z " fill="#676868" transform="translate(247,518)"/>
<path d="M0 0 C0.99 0.33 1.98 0.66 3 1 C2.34 1.66 1.68 2.32 1 3 C0.01 3 -0.98 3 -2 3 C-2.2475 3.78375 -2.495 4.5675 -2.75 5.375 C-4.19746697 8.41468063 -4.93914819 8.82967431 -8 10 C-9.33722892 10.65881791 -10.6711444 11.32445207 -12 12 C-8.34538072 7.50300394 -4.74119446 3.37151606 0 0 Z " fill="#757575" transform="translate(242,484)"/>
<path d="M0 0 C0 1.66666667 0 3.33333333 0 5 C-1.97946592 6.36363208 -3.9819245 7.69418644 -6 9 C-7.79394446 10.62351109 -7.79394446 10.62351109 -9 12 C-9.99 11.34 -10.98 10.68 -12 10 C-11.38511719 9.52949219 -10.77023437 9.05898438 -10.13671875 8.57421875 C-9.32847656 7.95160156 -8.52023437 7.32898438 -7.6875 6.6875 C-6.88699219 6.07261719 -6.08648437 5.45773437 -5.26171875 4.82421875 C-3.37298626 3.30083693 -1.66922364 1.75565593 0 0 Z " fill="#6B6C6C" transform="translate(506,365)"/>
<path d="M0 0 C1.32 0.33 2.64 0.66 4 1 C3.27683594 1.61488281 3.27683594 1.61488281 2.5390625 2.2421875 C1.90742188 2.78101563 1.27578125 3.31984375 0.625 3.875 C-0.00148437 4.40867188 -0.62796875 4.94234375 -1.2734375 5.4921875 C-2.55836651 6.61432007 -3.79371975 7.79371975 -5 9 C-5 8.34 -5 7.68 -5 7 C-5.66 7 -6.32 7 -7 7 C-6.34 5.35 -5.68 3.7 -5 2 C-3.68 2.33 -2.36 2.66 -1 3 C-0.67 2.01 -0.34 1.02 0 0 Z " fill="#6B6C6C" transform="translate(134,227)"/>
<path d="M0 0 C-2.80804268 2.96404505 -5.18315774 5.44499019 -9 7 C-9 5.35 -9 3.7 -9 2 C-3.375 -1.125 -3.375 -1.125 0 0 Z " fill="#676868" transform="translate(584,341)"/>
<path d="M0 0 C0 0.66 0 1.32 0 2 C-0.66 2 -1.32 2 -2 2 C-2.66 3.32 -3.32 4.64 -4 6 C-6.5 4.625 -6.5 4.625 -9 3 C-9 2.34 -9 1.68 -9 1 C-5.8035914 -0.06546953 -3.34252724 -0.07427838 0 0 Z " fill="#676968" transform="translate(457,71)"/>
<path d="M0 0 C2.52394612 3.12488567 4.39701907 6.31314387 6 10 C5.67 10.66 5.34 11.32 5 12 C2.36 9.03 -0.28 6.06 -3 3 C-2.01 2.01 -1.02 1.02 0 0 Z " fill="#6D6D6D" transform="translate(255,433)"/>
<path d="M0 0 C0 3 0 3 -1 6 C-3.5625 7.1875 -3.5625 7.1875 -6 8 C-6 8.66 -6 9.32 -6 10 C-6.99 10 -7.98 10 -9 10 C-9.66 10.66 -10.32 11.32 -11 12 C-11.66 11.34 -12.32 10.68 -13 10 C-12.31292969 9.52949219 -11.62585938 9.05898438 -10.91796875 8.57421875 C-10.01691406 7.95160156 -9.11585938 7.32898438 -8.1875 6.6875 C-7.29417969 6.07261719 -6.40085938 5.45773437 -5.48046875 4.82421875 C-3.43899254 3.32284963 -1.71537213 1.85214599 0 0 Z " fill="#E6E8E7" transform="translate(203,337)"/>
<path d="M0 0 C0 3.61537605 -0.89229241 5.11165997 -3 8 C-3.99 8 -4.98 8 -6 8 C-8.68767578 10.43750025 -8.68767578 10.43750025 -11 13 C-11 10 -11 10 -8.59375 7.51953125 C-7.56994769 6.60874608 -6.53832966 5.70668808 -5.5 4.8125 C-4.97535156 4.34908203 -4.45070312 3.88566406 -3.91015625 3.40820312 C-2.61333776 2.264645 -1.30750133 1.13132826 0 0 Z " fill="#EAEAEA" transform="translate(237,83)"/>
<path d="M0 0 C2.64 1.98 5.28 3.96 8 6 C7.01 6.66 6.02 7.32 5 8 C2.3125 7.125 2.3125 7.125 0 6 C0 4.02 0 2.04 0 0 Z " fill="#6C6D6C" transform="translate(288,430)"/>
<path d="M0 0 C4.24822374 0.47202486 6.19989709 2.96655518 9 6 C8.34 6 7.68 6 7 6 C6.67 6.66 6.34 7.32 6 8 C5.67 7.01 5.34 6.02 5 5 C4.34 4.67 3.68 4.34 3 4 C1 3 1 3 0 0 Z " fill="#686868" transform="translate(257,487)"/>
<path d="M0 0 C-1.65 1.32 -3.3 2.64 -5 4 C-5.66 3.01 -6.32 2.02 -7 1 C-7.99 0.34 -8.98 -0.32 -10 -1 C-5.94568308 -2.15837626 -3.78187881 -1.83691257 0 0 Z " fill="#6C6D6D" transform="translate(234,528)"/>
<path d="M0 0 C2.64 1.98 5.28 3.96 8 6 C7.34 6.66 6.68 7.32 6 8 C3.36 6.02 0.72 4.04 -2 2 C-1.34 1.34 -0.68 0.68 0 0 Z " fill="#ECECEC" transform="translate(260,485)"/>
<path d="M0 0 C7.57142857 4.14285714 7.57142857 4.14285714 10 7 C9.01 7.33 8.02 7.66 7 8 C7 7.34 7 6.68 7 6 C5.68 6 4.36 6 3 6 C3 5.34 3 4.68 3 4 C1.68 3.67 0.36 3.34 -1 3 C-0.67 2.01 -0.34 1.02 0 0 Z " fill="#6A6A6A" transform="translate(296,437)"/>
<path d="M0 0 C0.99 0.66 1.98 1.32 3 2 C2.1875 3.9375 2.1875 3.9375 1 6 C0.01 6.33 -0.98 6.66 -2 7 C-2.66 7.66 -3.32 8.32 -4 9 C-4.33 8.34 -4.66 7.68 -5 7 C-3.35 4.69 -1.7 2.38 0 0 Z " fill="#696969" transform="translate(109,213)"/>
<path d="M0 0 C1.0625 1.8125 1.0625 1.8125 2 4 C1.15250816 6.54247553 0.37334617 8.71108972 -1 11 C-1.99 11.33 -2.98 11.66 -4 12 C-3.52309796 10.37433394 -3.04340334 8.74948689 -2.5625 7.125 C-2.29566406 6.22007812 -2.02882812 5.31515625 -1.75390625 4.3828125 C-1 2 -1 2 0 0 Z " fill="#7B7D7C" transform="translate(152,147)"/>
<path d="M0 0 C0.33 0.66 0.66 1.32 1 2 C-2.63 2.33 -6.26 2.66 -10 3 C-10 2.34 -10 1.68 -10 1 C-6.78548731 -0.60725635 -3.56387464 -0.05748185 0 0 Z " fill="#6F6F6F" transform="translate(302,22)"/>
<path d="M0 0 C1.65 1.65 3.3 3.3 5 5 C3.625 6.5 3.625 6.5 2 8 C1.34 8 0.68 8 0 8 C0 7.34 0 6.68 0 6 C-0.66 5.67 -1.32 5.34 -2 5 C-1.34 5 -0.68 5 0 5 C0 3.35 0 1.7 0 0 Z " fill="#686969" transform="translate(271,412)"/>
<path d="M0 0 C3 2 3 2 3.51171875 3.9453125 C3.67447917 5.96354167 3.83723958 7.98177083 4 10 C3.01 10.495 3.01 10.495 2 11 C0.80712589 7.12315913 0 4.08378077 0 0 Z " fill="#6A6A6A" transform="translate(215,367)"/>
<path d="M0 0 C-0.33 0.99 -0.66 1.98 -1 3 C-1.763125 3.12375 -2.52625 3.2475 -3.3125 3.375 C-6.20267136 3.88102792 -6.20267136 3.88102792 -9 6 C-8.8125 4.1875 -8.8125 4.1875 -8 2 C-3.744 -1.248 -3.744 -1.248 0 0 Z " fill="#ECEEED" transform="translate(292,115)"/>
<path d="M0 0 C0.66 0.66 1.32 1.32 2 2 C0.875 4 0.875 4 -1 6 C-4.1875 6.25 -4.1875 6.25 -7 6 C-4.74259377 3.66475218 -2.7194239 1.81294927 0 0 Z " fill="#707070" transform="translate(259,98)"/>
<path d="M0 0 C2.31 1.98 4.62 3.96 7 6 C6.67 6.66 6.34 7.32 6 8 C5.34 8 4.68 8 4 8 C2.2856382 6.04072937 0.61594832 4.04119788 -1 2 C-0.67 1.34 -0.34 0.68 0 0 Z " fill="#6D6D6D" transform="translate(647,565)"/>
<path d="M0 0 C0.66 0 1.32 0 2 0 C2.33 1.65 2.66 3.3 3 5 C3.66 5 4.32 5 5 5 C4.67 5.99 4.34 6.98 4 8 C2.02 6.35 0.04 4.7 -2 3 C-1.34 2.67 -0.68 2.34 0 2 C0 1.34 0 0.68 0 0 Z " fill="#686A69" transform="translate(446,137)"/>
<path d="M0 0 C1.32 0.66 2.64 1.32 4 2 C1.63707344 4.52588702 0.33537489 5.88820837 -3 7 C-3 4 -3 4 -1.5 2.375 C-1.005 1.92125 -0.51 1.4675 0 1 C0 0.67 0 0.34 0 0 Z " fill="#6A6C6B" transform="translate(249,70)"/>
<path d="M0 0 C0.66 0 1.32 0 2 0 C2.33 2.31 2.66 4.62 3 7 C1.66666667 7.66666667 0.33333333 8.33333333 -1 9 C-0.67 6.03 -0.34 3.06 0 0 Z " fill="#707070" transform="translate(29,604)"/>
<path d="M0 0 C0.99 0.33 1.98 0.66 3 1 C2 4 2 4 -0.0625 5.1875 C-0.701875 5.455625 -1.34125 5.72375 -2 6 C-2.66 5.34 -3.32 4.68 -4 4 C-2.68 2.68 -1.36 1.36 0 0 Z " fill="#686A69" transform="translate(442,519)"/>
<path d="M0 0 C2.31 1.65 4.62 3.3 7 5 C6.01 6.485 6.01 6.485 5 8 C5 7.34 5 6.68 5 6 C3.7934375 5.566875 3.7934375 5.566875 2.5625 5.125 C0 4 0 4 -1 2 C-0.67 1.34 -0.34 0.68 0 0 Z " fill="#EBEBEB" transform="translate(274,457)"/>
<path d="M0 0 C0.66 0.33 1.32 0.66 2 1 C-0.57784846 3.64752004 -2.91648098 5.94432065 -6 8 C-6.99 7.67 -7.98 7.34 -9 7 C-6.03 4.69 -3.06 2.38 0 0 Z " fill="#E2E3E3" transform="translate(277,121)"/>
<path d="M0 0 C2.34058637 2.12780579 3.70700306 4.11562221 5 7 C4.01 7.495 4.01 7.495 3 8 C0.9375 6.25 0.9375 6.25 -1 4 C-0.75 1.75 -0.75 1.75 0 0 Z " fill="#6E6E6E" transform="translate(521,101)"/>
<path d="M0 0 C1.31625194 2.63250388 0.74813658 3.80179056 0.0625 6.625 C-0.13214844 7.44226563 -0.32679688 8.25953125 -0.52734375 9.1015625 C-0.68332031 9.72804688 -0.83929688 10.35453125 -1 11 C-1.99 11 -2.98 11 -4 11 C-3.71758359 9.53984709 -3.42373386 8.08190207 -3.125 6.625 C-2.96257812 5.81289062 -2.80015625 5.00078125 -2.6328125 4.1640625 C-2 2 -2 2 0 0 Z " fill="#686A69" transform="translate(210,101)"/>
<path d="M0 0 C3.3 0.33 6.6 0.66 10 1 C8 3 8 3 4.375 3.125 C3.26125 3.08375 2.1475 3.0425 1 3 C0.67 2.01 0.34 1.02 0 0 Z " fill="#686868" transform="translate(398,22)"/>
<path d="M0 0 C0.86625 0.556875 0.86625 0.556875 1.75 1.125 C1.42 1.785 1.09 2.445 0.75 3.125 C1.74 3.455 2.73 3.785 3.75 4.125 C0.03111761 3.61787967 -2.98454239 3.00891785 -6.25 1.125 C-2.80384615 -1.09038462 -2.80384615 -1.09038462 0 0 Z " fill="#6F6F6F" transform="translate(558.25,558.875)"/>
<path d="M0 0 C-0.61875 0.2475 -1.2375 0.495 -1.875 0.75 C-4.35068687 2.20628639 -4.95125002 3.37812506 -6 6 C-6.33 5.34 -6.66 4.68 -7 4 C-7.99 3.34 -8.98 2.68 -10 2 C-8.71211992 1.46987262 -7.41953322 0.9511671 -6.125 0.4375 C-5.40570313 0.14746094 -4.68640625 -0.14257812 -3.9453125 -0.44140625 C-2 -1 -2 -1 0 0 Z " fill="#E3E3E3" transform="translate(394,478)"/>
<path d="M0 0 C0.66 0.33 1.32 0.66 2 1 C1.8125 2.8125 1.8125 2.8125 1 5 C-1.5625 6.75 -1.5625 6.75 -4 8 C-4 7.01 -4 6.02 -4 5 C-3.34 5 -2.68 5 -2 5 C-1.34 3.35 -0.68 1.7 0 0 Z " fill="#696969" transform="translate(517,390)"/>
<path d="M0 0 C0.99 0.33 1.98 0.66 3 1 C3 1.66 3 2.32 3 3 C3.99 3 4.98 3 6 3 C6 3.99 6 4.98 6 6 C1.25 4.125 1.25 4.125 -1 3 C-0.67 2.01 -0.34 1.02 0 0 Z " fill="#6B6D6C" transform="translate(122,343)"/>
<path d="M0 0 C1.2065625 0.0309375 1.2065625 0.0309375 2.4375 0.0625 C2.7675 1.7125 3.0975 3.3625 3.4375 5.0625 C2.4475 5.3925 1.4575 5.7225 0.4375 6.0625 C-0.8825 4.4125 -2.2025 2.7625 -3.5625 1.0625 C-2.5625 0.0625 -2.5625 0.0625 0 0 Z " fill="#6A6B6B" transform="translate(471.5625,85.9375)"/>
<path d="M0 0 C1.65 0 3.3 0 5 0 C3.63016497 3.16115776 3.0109362 3.9927092 0 6 C0 4.02 0 2.04 0 0 Z " fill="#676767" transform="translate(70,583)"/>
<path d="M0 0 C-2.52788007 2.79872437 -4.20411134 4.45773019 -8 5 C-8 4.34 -8 3.68 -8 3 C-8.66 2.67 -9.32 2.34 -10 2 C-3.375 -1.125 -3.375 -1.125 0 0 Z " fill="#E7E8E8" transform="translate(500,408)"/>
<path d="M0 0 C0.763125 0.20625 1.52625 0.4125 2.3125 0.625 C0.3325 1.615 0.3325 1.615 -1.6875 2.625 C-1.3575 3.285 -1.0275 3.945 -0.6875 4.625 C-2.3375 4.625 -3.9875 4.625 -5.6875 4.625 C-5.6875 3.635 -5.6875 2.645 -5.6875 1.625 C-2.6875 -0.375 -2.6875 -0.375 0 0 Z " fill="#737474" transform="translate(376.6875,367.375)"/>
<path d="M0 0 C0.99 0.99 1.98 1.98 3 3 C1.02 3.99 1.02 3.99 -1 5 C-1.99 4.01 -2.98 3.02 -4 2 C-2.68 1.34 -1.36 0.68 0 0 Z " fill="#676867" transform="translate(283,533)"/>
<path d="M0 0 C0.66 0.99 1.32 1.98 2 3 C0.35 4.65 -1.3 6.3 -3 8 C-2.25 2.25 -2.25 2.25 0 0 Z " fill="#EFEFEF" transform="translate(568,311)"/>
<path d="M0 0 C0 3.16880694 -0.2058242 4.43689172 -2 7 C-4.625 7.75 -4.625 7.75 -7 8 C-6.02133662 6.85373678 -5.04205413 5.70800212 -4.0625 4.5625 C-3.51722656 3.92441406 -2.97195312 3.28632813 -2.41015625 2.62890625 C-1.63204305 1.73008851 -0.84063472 0.84063472 0 0 Z " fill="#737373" transform="translate(117,205)"/>
<path d="M0 0 C0.66 1.32 1.32 2.64 2 4 C-0.475 5.485 -0.475 5.485 -3 7 C-3.66 6.34 -4.32 5.68 -5 5 C-3.35 3.35 -1.7 1.7 0 0 Z " fill="#6B6B6B" transform="translate(208,69)"/>
<path d="M0 0 C-1.28965176 1.37562854 -2.62689293 2.70766393 -4 4 C-4.66 4 -5.32 4 -6 4 C-6 3.34 -6 2.68 -6 2 C-6.99 1.67 -7.98 1.34 -9 1 C-2.25 -1.125 -2.25 -1.125 0 0 Z " fill="#E4E5E5" transform="translate(184,551)"/>
<path d="M0 0 C1.65 0 3.3 0 5 0 C5.66 1.65 6.32 3.3 7 5 C4.69 4.34 2.38 3.68 0 3 C0 2.01 0 1.02 0 0 Z " fill="#767877" transform="translate(524,550)"/>
<path d="M0 0 C0.99 0.33 1.98 0.66 3 1 C0.82575883 3.50037734 -0.73045798 4.43628586 -4 5 C-2.25 1.125 -2.25 1.125 0 0 Z " fill="#696969" transform="translate(428,529)"/>
<path d="M0 0 C1.65 0.99 3.3 1.98 5 3 C4.67 3.66 4.34 4.32 4 5 C2.35 4.67 0.7 4.34 -1 4 C-0.67 2.68 -0.34 1.36 0 0 Z " fill="#686A69" transform="translate(266,493)"/>
<path d="M0 0 C-2.46278801 2.46278801 -4.70676982 2.99771255 -8 4 C-7.625 2.0625 -7.625 2.0625 -7 0 C-4.3333581 -1.33332095 -2.83319697 -0.67102033 0 0 Z " fill="#747675" transform="translate(402,473)"/>
<path d="M0 0 C2.31 0.33 4.62 0.66 7 1 C6.67 1.66 6.34 2.32 6 3 C3.36 3 0.72 3 -2 3 C-1.34 2.67 -0.68 2.34 0 2 C0 1.34 0 0.68 0 0 Z " fill="#6B6B6B" transform="translate(166,352)"/>
<path d="M0 0 C1.32 0.66 2.64 1.32 4 2 C4 2.99 4 3.98 4 5 C1.69 4.34 -0.62 3.68 -3 3 C-2.01 2.01 -1.02 1.02 0 0 Z " fill="#6E706F" transform="translate(564,319)"/>
<path d="M0 0 C2 3 2 3 1.625 6.1875 C1.41875 7.115625 1.2125 8.04375 1 9 C0.01 9 -0.98 9 -2 9 C-1.125 5.125 -1.125 5.125 0 4 C0 2.68 0 1.36 0 0 Z " fill="#787A79" transform="translate(510,301)"/>
<path d="M0 0 C0.99 1.32 1.98 2.64 3 4 C2.34 5.32 1.68 6.64 1 8 C-1 5 -1 5 -0.625 2.3125 C-0.41875 1.549375 -0.2125 0.78625 0 0 Z " fill="#6D6E6E" transform="translate(544,140)"/>
<path d="M0 0 C1.65 1.65 3.3 3.3 5 5 C-0.75 4.25 -0.75 4.25 -3 2 C-2.01 1.34 -1.02 0.68 0 0 Z " fill="#747675" transform="translate(287,536)"/>
<path d="M0 0 C0.66 0.33 1.32 0.66 2 1 C2.33 1.99 2.66 2.98 3 4 C-0.75 5.125 -0.75 5.125 -3 4 C-3 3.34 -3 2.68 -3 2 C-2.01 1.34 -1.02 0.68 0 0 Z " fill="#6B6B6B" transform="translate(123,201)"/>
<path d="M0 0 C0 0.99 0 1.98 0 3 C-2.375 3.625 -2.375 3.625 -5 4 C-5.66 3.34 -6.32 2.68 -7 2 C-4.35261084 0.5393715 -3.10551666 0 0 0 Z " fill="#696969" transform="translate(132,198)"/>
<path d="M0 0 C0.66 1.32 1.32 2.64 2 4 C0.35 4.33 -1.3 4.66 -3 5 C-3.33 4.34 -3.66 3.68 -4 3 C-3.34 3 -2.68 3 -2 3 C-2 2.34 -2 1.68 -2 1 C-1.34 0.67 -0.68 0.34 0 0 Z " fill="#676968" transform="translate(495,163)"/>
<path d="M0 0 C0.66 0.66 1.32 1.32 2 2 C1.34 3.65 0.68 5.3 0 7 C-1.32 6.67 -2.64 6.34 -4 6 C-2.68 4.02 -1.36 2.04 0 0 Z " fill="#E4E6E5" transform="translate(240,160)"/>
<path d="M0 0 C2.125 0.9375 2.125 0.9375 4 2 C2.68 2.99 1.36 3.98 0 5 C-0.66 3.68 -1.32 2.36 -2 1 C-1.34 0.67 -0.68 0.34 0 0 Z " fill="#6B6C6B" transform="translate(224,90)"/>
</svg>
